<svg width="50" height="50" viewBox="0 0 50 50" fill="none" xmlns="http://www.w3.org/2000/svg">
<g clip-path="url(#clip0_44_122)">
<mask id="mask0_44_122" style="mask-type:luminance" maskUnits="userSpaceOnUse" x="0" y="0" width="50" height="50">
<path d="M49.5 0.5V49.5H0.5V0.5H49.5Z" fill="white" stroke="white"/>
</mask>
<g mask="url(#mask0_44_122)">
<path d="M40.9206 0.349976H9.07958C4.25842 0.349976 0.350098 4.2583 0.350098 9.07946V40.9205C0.350098 45.7417 4.25842 49.65 9.07958 49.65H40.9206C45.7418 49.65 49.6501 45.7417 49.6501 40.9205V9.07946C49.6501 4.2583 45.7418 0.349976 40.9206 0.349976Z" fill="url(#paint0_linear_44_122)" stroke="url(#paint1_linear_44_122)" stroke-width="0.7"/>
</g>
<mask id="mask1_44_122" style="mask-type:luminance" maskUnits="userSpaceOnUse" x="5" y="5" width="40" height="41">
<path d="M44.7185 5.28149H5.60742V45.3704H44.7185V5.28149Z" fill="white"/>
</mask>
<g mask="url(#mask1_44_122)">
<path d="M25.163 43.7408C35.6034 43.7408 44.0667 35.2773 44.0667 24.8371C44.0667 14.3968 35.6034 5.93335 25.163 5.93335C14.7228 5.93335 6.25928 14.3968 6.25928 24.8371C6.25928 35.2773 14.7228 43.7408 25.163 43.7408Z" fill="white" stroke="#18181B"/>
<mask id="mask2_44_122" style="mask-type:luminance" maskUnits="userSpaceOnUse" x="7" y="12" width="34" height="34">
<path d="M33.0851 12.0125L7.33118 19.6197L14.9385 45.3736L40.6924 37.7662L33.0851 12.0125Z" fill="white"/>
</mask>
<g mask="url(#mask2_44_122)">
<path d="M26.856 24.1189C26.0938 24.3544 25.3864 24.7332 24.7494 25.1769C23.5504 26.0121 21.7496 27.9698 21.7496 27.9698C21.5815 28.1512 21.5923 28.4343 21.7736 28.6024C21.8437 28.6674 21.9328 28.7082 22.0278 28.7189C22.0278 28.7189 22.8289 28.8088 23.8221 28.8562C24.8154 28.9036 25.9903 28.9199 26.8463 28.7322C27.7434 28.5354 28.7579 28.2292 29.4835 27.4829C30.0004 26.951 30.3293 26.122 30.5822 25.4009C30.8351 24.6797 30.9828 24.0666 30.9828 24.0666C31.0409 23.8264 30.8932 23.5845 30.6529 23.5263C30.5704 23.5064 30.484 23.5103 30.4036 23.5377C30.4036 23.5377 29.8213 23.7302 29.5988 23.7754C28.8085 23.9389 27.8469 23.8171 26.8576 24.1166L26.856 24.1189Z" fill="#18181B"/>
<path d="M27.1203 24.9762C27.8667 24.7464 28.7952 24.8592 29.7818 24.6549L29.8825 24.6252C29.8227 24.828 29.8292 24.8457 29.7381 25.1053C29.5015 25.7799 29.1366 26.556 28.8415 26.8596C28.3304 27.3855 27.4918 27.6758 26.6556 27.859C25.9906 28.005 24.829 28.0104 23.8666 27.9644C23.4573 27.9448 23.424 27.9319 23.1278 27.9074C23.7008 27.3164 24.5213 26.4273 25.2619 25.9115C25.8388 25.5096 26.4688 25.1774 27.1203 24.9762Z" fill="white"/>
<path d="M24.3767 30.5993C24.1447 30.6675 23.9122 30.7598 23.6847 30.8858C23.0504 31.2371 22.6479 31.7952 22.2784 32.2474C21.3461 33.3877 19.9893 35.7673 19.9893 35.7673C19.9279 35.8732 19.9126 35.9997 19.9469 36.1173C20.0012 36.3005 20.1658 36.4293 20.3568 36.4374C20.3568 36.4374 20.9684 36.4667 21.7207 36.4446C22.473 36.4224 23.3538 36.366 24.0119 36.1288C24.9488 35.7904 25.7858 35.1776 26.4281 34.4398C27.1002 33.6688 27.5725 32.7164 27.8144 31.7332C27.8893 31.4284 27.8804 31.1049 27.8701 30.8234C27.8598 30.5419 27.8363 30.3138 27.8363 30.3138C27.8102 30.068 27.5898 29.8899 27.344 29.9159C27.3106 29.9195 27.2777 29.9269 27.2458 29.9377C27.2458 29.9377 26.6068 30.1564 26.3187 30.2368C25.7646 30.3911 25.0724 30.3947 24.3767 30.5993ZM24.6257 31.4737C25.1789 31.327 25.8565 31.2969 26.5587 31.0997C26.7067 31.056 26.79 31.0221 26.9682 30.9676C26.9692 31.1857 26.9651 31.4326 26.9436 31.52C26.7347 32.3691 26.3188 33.2009 25.7511 33.8521C25.2017 34.4831 24.4765 35.0094 23.7067 35.2873C23.269 35.4456 22.4087 35.5292 21.6933 35.5503C21.4195 35.5583 21.4061 35.5492 21.1966 35.5474C21.5762 34.9054 22.319 33.6091 22.9689 32.8144C23.3545 32.3425 23.7069 31.8966 24.1166 31.6698C24.2696 31.5853 24.4411 31.5225 24.6257 31.4737Z" fill="#18181B"/>
<path d="M17.2337 23.2295C17.1485 23.2615 17.0752 23.3189 17.0234 23.3936C17.0234 23.3936 16.8926 23.5807 16.7469 23.8217C16.6012 24.0628 16.436 24.3406 16.3534 24.6434C16.0869 25.6202 16.0385 26.6831 16.2505 27.6837C16.4538 28.6404 16.8849 29.5817 17.5399 30.3327C17.9997 30.86 18.7421 31.3376 19.3888 31.7226C20.0356 32.1076 20.5859 32.3808 20.5859 32.3808C20.8077 32.49 21.0761 32.3988 21.1852 32.1769C21.2164 32.1136 21.2321 32.0439 21.2312 31.9733C21.2312 31.9733 21.2027 29.2352 20.9421 27.7854C20.8386 27.2108 20.757 26.5251 20.3732 25.9098C19.8229 25.027 18.9321 24.6045 18.3878 24.0644C18.1755 23.8537 17.7232 23.3509 17.7232 23.3509C17.6109 23.2257 17.4378 23.1739 17.2753 23.217C17.2611 23.2204 17.247 23.2246 17.2332 23.2295H17.2337ZM17.4638 24.3848C17.5901 24.5216 17.6477 24.5905 17.7572 24.6992C18.4476 25.3843 19.2448 25.7902 19.6149 26.3836C19.8626 26.781 19.9535 27.3436 20.0607 27.9437C20.2425 28.9549 20.263 30.4496 20.2826 31.1942C20.0985 31.094 20.0829 31.095 19.8471 30.9546C19.2321 30.5884 18.5214 30.0956 18.2155 29.7448C17.6778 29.1282 17.2989 28.3168 17.1253 27.4982C16.9465 26.6527 16.9878 25.7239 17.218 24.8803C17.2419 24.794 17.3565 24.5746 17.4635 24.3848L17.4638 24.3848Z" fill="#18181B"/>
<path d="M17.5037 24.5111C18.3511 28.4874 19.0681 27.9659 20.1111 31.0296" stroke="#18181B" stroke-width="0.5" stroke-linecap="round" stroke-linejoin="round"/>
<path d="M22.492 15.6093C22.4772 15.6128 22.4626 15.6172 22.4482 15.6222C22.3859 15.6462 22.3297 15.6838 22.2838 15.7324C22.2838 15.7324 21.8478 16.1883 21.3793 16.7926C20.9108 17.3968 20.3946 18.1241 20.2311 18.8491C19.9655 20.0274 20.3064 21.2275 20.7086 22.2429C21.0068 22.9965 21.6286 23.8655 22.1805 24.5846C22.7323 25.3036 23.2181 25.8569 23.2181 25.8569C23.3816 26.0423 23.6645 26.0599 23.8499 25.8963C23.9172 25.837 23.9651 25.7587 23.9874 25.6717C23.9874 25.6717 24.6646 23.0982 24.7045 21.6315C24.7302 20.6883 24.6423 19.7118 24.352 18.7841C24.0841 17.9277 23.5205 17.3302 23.2767 16.73C23.1978 16.5354 23.042 15.9352 23.042 15.9352C22.9841 15.6949 22.7423 15.5469 22.502 15.6049C22.4978 15.6059 22.4937 15.6069 22.4896 15.6081L22.492 15.6093Z" fill="#18181B"/>
<path d="M22.4153 16.9608C22.4293 17.008 22.4346 17.026 22.4475 17.0697C22.7761 17.8789 23.3118 18.4575 23.4982 19.0528C23.7499 19.8574 23.834 20.7387 23.8104 21.6094C23.7856 22.5209 23.47 23.7398 23.2864 24.526C23.121 24.3253 23.1021 24.3153 22.8915 24.041C22.3594 23.3478 21.7643 22.477 21.5416 21.9149C21.1669 20.9692 20.9066 19.9263 21.1046 19.0469C21.1974 18.6353 21.651 17.9082 22.089 17.3433C22.2579 17.1254 22.2771 17.1212 22.4153 16.9608Z" fill="white"/>
<path d="M22.3926 17.1778C22.2297 19.4593 22.3926 21.5778 23.2074 24.5111" stroke="#18181B" stroke-width="0.5" stroke-linecap="round" stroke-linejoin="round"/>
<path d="M33.1481 17.1778C31.5184 18.3185 29.7259 19.2963 27.6073 20.9259" stroke="#18181B" stroke-width="0.5" stroke-linecap="round" stroke-linejoin="round"/>
<path d="M29.7259 24.6741C28.2592 25.9778 25.9778 27.1185 23.2074 27.9333" stroke="#18181B" stroke-width="0.5" stroke-linecap="round" stroke-linejoin="round"/>
<path d="M26.9555 31.0297C24.6741 32.4963 23.6963 34.4519 21.2518 35.4297" stroke="#18181B" stroke-width="0.5" stroke-linecap="round" stroke-linejoin="round"/>
<path d="M31.676 16.5953C31.3404 16.6945 31.0212 16.8037 30.7615 16.9C29.8352 17.2464 28.5877 17.4198 27.7189 18.3256C27.2742 18.7892 27.0227 19.4809 26.8267 20.0822C26.6307 20.6835 26.5211 21.1952 26.5211 21.1952C26.4714 21.4259 26.6095 21.6556 26.8366 21.72C28.8086 22.2743 30.4931 22.0918 32.1032 20.6584C32.6817 20.1434 33.1659 19.1718 33.5939 18.2803C34.0217 17.3886 34.3386 16.5981 34.3386 16.5981C34.4311 16.3689 34.3201 16.1081 34.0909 16.0156C34.0019 15.9798 33.9038 15.9733 33.8111 15.9974C33.8111 15.9974 32.6794 16.286 31.6755 16.5937L31.676 16.5953ZM32.0897 17.4156C32.4382 17.3127 32.7916 17.225 33.1227 17.1357C32.9966 17.4282 32.9797 17.4935 32.7872 17.8947C32.3743 18.7553 31.7999 19.7302 31.5083 19.9898C30.2189 21.1377 29.072 21.2539 27.5286 20.9029C27.5763 20.7139 27.5828 20.6542 27.6784 20.361C27.8585 19.8082 28.1486 19.1714 28.3651 18.9457C28.9566 18.3291 30.0261 18.1332 31.0755 17.7405C31.3929 17.6214 31.7399 17.5143 32.0897 17.4156Z" fill="#18181B"/>
<path d="M27.2924 20.9751C27.1714 20.8472 26.9866 20.802 26.8203 20.8598L26.8202 20.8602C26.754 20.8827 26.6939 20.9201 26.6448 20.97C26.6448 20.97 25.4129 22.178 24.8369 22.9405C23.6175 24.5548 22.4558 26.2721 21.6321 28.1622C21.0396 29.5215 20.8126 30.9593 20.4768 32.299C20.0924 33.8327 19.9449 35.3705 19.4822 36.7637C19.055 38.0504 18.5414 39.3095 17.8404 40.432C17.6011 40.8149 17.2274 41.2999 16.8228 41.7901L16.8293 42.0932L17.0187 42.4527L17.4535 42.4433C17.8917 41.913 18.3099 41.368 18.5985 40.9062C19.3547 39.6957 19.8915 38.3692 20.3312 37.0456C20.8365 35.5237 20.9827 33.9622 21.3452 32.5165C21.6937 31.1263 21.922 29.74 22.4541 28.5192C23.234 26.7298 24.351 25.0692 25.5509 23.4809C26.0233 22.8554 27.2746 21.608 27.2746 21.608C27.4543 21.4381 27.4622 21.1548 27.2924 20.9751Z" fill="#18181B"/>
</g>
<path d="M26.9554 11.4741C26.8246 12.0847 26.562 12.7565 26.1776 13.1408C25.7934 13.5248 25.1218 13.7879 24.5111 13.9186C25.1218 14.0497 25.7934 14.312 26.1776 14.6965C26.562 15.0807 26.8251 15.752 26.9559 16.3629C27.0865 15.752 27.3492 15.0807 27.7337 14.6962C28.1177 14.312 28.7895 14.0491 29.4 13.9181C28.7895 13.7876 28.1177 13.5248 27.7335 13.1405C27.3492 12.7566 27.086 12.0847 26.9554 11.4741Z" fill="#18181B"/>
</g>
</g>
<defs>
<linearGradient id="paint0_linear_44_122" x1="13.0001" y1="1.99998" x2="33.0001" y2="50" gradientUnits="userSpaceOnUse">
<stop stop-color="#FAFAFA"/>
<stop offset="1" stop-color="#F4F1EB"/>
</linearGradient>
<linearGradient id="paint1_linear_44_122" x1="3.0001" y1="2.49998" x2="47.0001" y2="48" gradientUnits="userSpaceOnUse">
<stop stop-color="#E6E6E6"/>
<stop offset="0.5" stop-color="white"/>
<stop offset="1" stop-color="#CDCDCD"/>
</linearGradient>
<clipPath id="clip0_44_122">
<rect width="50" height="50" fill="white"/>
</clipPath>
</defs>
</svg>
